<mxfile host="65bd71144e">
    <diagram id="CacLQQwZGqaokbPIPCrB" name="第 1 页">
        <mxGraphModel dx="1766" dy="1234" grid="1" gridSize="10" guides="1" tooltips="1" connect="1" arrows="1" fold="1" page="1" pageScale="1" pageWidth="827" pageHeight="1169" math="0" shadow="0">
            <root>
                <mxCell id="0"/>
                <mxCell id="1" parent="0"/>
                <mxCell id="237" value="&lt;font style=&quot;font-size: 20px&quot;&gt;FitHiChIP&lt;/font&gt;" style="rounded=1;whiteSpace=wrap;html=1;strokeWidth=4;fontSize=24;strokeColor=#FF3333;" parent="1" vertex="1">
                    <mxGeometry x="623" y="631.83" width="92" height="46" as="geometry"/>
                </mxCell>
                <mxCell id="283" value="&lt;span style=&quot;font-size: 20px&quot;&gt;hichipper&lt;/span&gt;" style="rounded=1;whiteSpace=wrap;html=1;strokeWidth=4;fontSize=24;strokeColor=#FF3333;" vertex="1" parent="1">
                    <mxGeometry x="735.6" y="631.83" width="92" height="46" as="geometry"/>
                </mxCell>
                <mxCell id="138" value="&lt;font style=&quot;font-size: 20px&quot;&gt;Chromosomes' size&lt;/font&gt;" style="rounded=1;whiteSpace=wrap;html=1;arcSize=50;fontSize=20;strokeColor=#04BFAD;strokeWidth=2;" parent="1" vertex="1">
                    <mxGeometry x="270" y="313" width="200" height="30" as="geometry"/>
                </mxCell>
                <mxCell id="139" value="" style="edgeStyle=none;html=1;strokeWidth=2;endArrow=block;endFill=1;entryX=-0.016;entryY=0.483;entryDx=0;entryDy=0;entryPerimeter=0;" parent="1" source="140" target="144" edge="1">
                    <mxGeometry relative="1" as="geometry"/>
                </mxCell>
                <mxCell id="219" style="edgeStyle=none;html=1;exitX=0.1;exitY=0.5;exitDx=0;exitDy=0;exitPerimeter=0;fontSize=24;endArrow=block;endFill=1;strokeWidth=2;entryX=-0.013;entryY=0.494;entryDx=0;entryDy=0;entryPerimeter=0;" parent="1" source="140" target="218" edge="1">
                    <mxGeometry relative="1" as="geometry">
                        <mxPoint x="700" y="200" as="targetPoint"/>
                        <Array as="points">
                            <mxPoint x="493" y="200"/>
                        </Array>
                    </mxGeometry>
                </mxCell>
                <mxCell id="140" value="" style="shape=curlyBracket;whiteSpace=wrap;html=1;rounded=1;flipH=1;size=0.5;strokeWidth=2;" parent="1" vertex="1">
                    <mxGeometry x="475" y="220" width="20" height="170" as="geometry"/>
                </mxCell>
                <mxCell id="141" value="Fragments of digestion" style="rounded=1;whiteSpace=wrap;html=1;arcSize=50;fontSize=20;strokeColor=#04BFAD;strokeWidth=2;" parent="1" vertex="1">
                    <mxGeometry x="240" y="370" width="230" height="30" as="geometry"/>
                </mxCell>
                <mxCell id="142" value="" style="edgeStyle=none;html=1;endArrow=block;endFill=1;strokeWidth=2;entryX=0.034;entryY=0.499;entryDx=0;entryDy=0;entryPerimeter=0;" parent="1" source="144" target="149" edge="1">
                    <mxGeometry relative="1" as="geometry">
                        <mxPoint x="799.25" y="306.9999999999998" as="targetPoint"/>
                        <Array as="points"/>
                    </mxGeometry>
                </mxCell>
                <mxCell id="143" value="" style="edgeStyle=none;html=1;endArrow=block;endFill=1;strokeWidth=2;entryX=0.037;entryY=0.499;entryDx=0;entryDy=0;entryPerimeter=0;exitX=0.5;exitY=1;exitDx=0;exitDy=0;" parent="1" source="144" target="151" edge="1">
                    <mxGeometry relative="1" as="geometry">
                        <mxPoint x="639.25" y="416.9999999999998" as="targetPoint"/>
                        <Array as="points">
                            <mxPoint x="639" y="380"/>
                            <mxPoint x="786" y="380"/>
                        </Array>
                    </mxGeometry>
                </mxCell>
                <mxCell id="144" value="HiC-Pro" style="rounded=1;whiteSpace=wrap;html=1;strokeWidth=4;fontSize=24;strokeColor=#FF3333;" parent="1" vertex="1">
                    <mxGeometry x="579.25" y="277" width="120" height="60" as="geometry"/>
                </mxCell>
                <mxCell id="145" value="" style="edgeStyle=none;html=1;fontSize=24;endArrow=block;endFill=1;strokeWidth=2;" parent="1" source="146" target="159" edge="1">
                    <mxGeometry relative="1" as="geometry"/>
                </mxCell>
                <mxCell id="146" value="allValidPairs" style="rounded=1;whiteSpace=wrap;html=1;arcSize=50;fontSize=20;" parent="1" vertex="1">
                    <mxGeometry x="823.25" y="235" width="136.75" height="25" as="geometry"/>
                </mxCell>
                <mxCell id="147" value="Input" style="text;html=1;align=center;verticalAlign=middle;resizable=0;points=[];autosize=1;strokeColor=none;fillColor=none;" parent="1" vertex="1">
                    <mxGeometry x="510" y="305" width="40" height="20" as="geometry"/>
                </mxCell>
                <mxCell id="148" value="Output" style="text;html=1;resizable=0;autosize=1;align=center;verticalAlign=middle;points=[];fillColor=none;strokeColor=none;rounded=0;" parent="1" vertex="1">
                    <mxGeometry x="719.25" y="305" width="50" height="20" as="geometry"/>
                </mxCell>
                <mxCell id="149" value="" style="shape=curlyBracket;whiteSpace=wrap;html=1;rounded=1;strokeWidth=2;" parent="1" vertex="1">
                    <mxGeometry x="800" y="247" width="19.25" height="120" as="geometry"/>
                </mxCell>
                <mxCell id="150" value="matrix" style="rounded=1;whiteSpace=wrap;html=1;arcSize=50;fontSize=20;" parent="1" vertex="1">
                    <mxGeometry x="829.25" y="352" width="86.75" height="25" as="geometry"/>
                </mxCell>
                <mxCell id="151" value="" style="shape=curlyBracket;whiteSpace=wrap;html=1;rounded=1;flipH=1;strokeWidth=2;rotation=-90;" parent="1" vertex="1">
                    <mxGeometry x="775.78" y="294.16" width="20" height="265.69" as="geometry"/>
                </mxCell>
                <mxCell id="152" value="VaildPairs" style="rounded=1;whiteSpace=wrap;html=1;strokeWidth=2;rotation=90;arcSize=50;fontSize=20;" parent="1" vertex="1">
                    <mxGeometry x="600" y="479.5" width="110" height="30" as="geometry"/>
                </mxCell>
                <mxCell id="153" value="DEPairs" style="rounded=1;whiteSpace=wrap;html=1;strokeWidth=2;rotation=90;arcSize=50;fontSize=20;" parent="1" vertex="1">
                    <mxGeometry x="644" y="482" width="110" height="30" as="geometry"/>
                </mxCell>
                <mxCell id="154" value="REPairs" style="rounded=1;whiteSpace=wrap;html=1;strokeWidth=2;rotation=90;arcSize=50;fontSize=20;" parent="1" vertex="1">
                    <mxGeometry x="687" y="482" width="110" height="30" as="geometry"/>
                </mxCell>
                <mxCell id="155" value="DumPairs" style="rounded=1;whiteSpace=wrap;html=1;strokeWidth=2;rotation=90;arcSize=50;fontSize=20;" parent="1" vertex="1">
                    <mxGeometry x="774" y="482" width="110" height="30" as="geometry"/>
                </mxCell>
                <mxCell id="156" value="Output" style="text;html=1;resizable=0;autosize=1;align=center;verticalAlign=middle;points=[];fillColor=none;strokeColor=none;rounded=0;" parent="1" vertex="1">
                    <mxGeometry x="737" y="388" width="50" height="20" as="geometry"/>
                </mxCell>
                <mxCell id="282" style="edgeStyle=none;html=1;exitX=0.1;exitY=0.5;exitDx=0;exitDy=0;exitPerimeter=0;fontSize=20;endArrow=block;endFill=1;strokeWidth=2;" parent="1" source="157" edge="1">
                    <mxGeometry relative="1" as="geometry">
                        <mxPoint x="782" y="630" as="targetPoint"/>
                    </mxGeometry>
                </mxCell>
                <mxCell id="157" value="" style="shape=curlyBracket;whiteSpace=wrap;html=1;rounded=1;flipH=1;strokeWidth=2;rotation=-180;direction=south;" parent="1" vertex="1">
                    <mxGeometry x="599.47" y="563" width="364.27" height="20" as="geometry"/>
                </mxCell>
                <mxCell id="158" value="" style="edgeStyle=none;html=1;fontSize=24;endArrow=block;endFill=1;strokeWidth=2;entryX=0.497;entryY=-0.03;entryDx=0;entryDy=0;entryPerimeter=0;" parent="1" source="159" target="164" edge="1">
                    <mxGeometry relative="1" as="geometry">
                        <mxPoint x="1264" y="260" as="targetPoint"/>
                        <Array as="points">
                            <mxPoint x="1264" y="247"/>
                        </Array>
                    </mxGeometry>
                </mxCell>
                <mxCell id="159" value=".hic file" style="rounded=1;whiteSpace=wrap;html=1;arcSize=50;fontSize=20;" parent="1" vertex="1">
                    <mxGeometry x="1039.25" y="235" width="126" height="25" as="geometry"/>
                </mxCell>
                <mxCell id="160" value="Conversion" style="text;html=1;resizable=0;autosize=1;align=center;verticalAlign=middle;points=[];fillColor=none;strokeColor=none;rounded=0;" parent="1" vertex="1">
                    <mxGeometry x="956" y="250" width="80" height="20" as="geometry"/>
                </mxCell>
                <mxCell id="161" value="bed files" style="rounded=1;whiteSpace=wrap;html=1;arcSize=50;fontSize=20;" parent="1" vertex="1">
                    <mxGeometry x="820" y="297" width="99.25" height="25" as="geometry"/>
                </mxCell>
                <mxCell id="162" value="Input" style="text;html=1;resizable=0;autosize=1;align=center;verticalAlign=middle;points=[];fillColor=none;strokeColor=none;rounded=0;" parent="1" vertex="1">
                    <mxGeometry x="1173.75" y="250" width="40" height="20" as="geometry"/>
                </mxCell>
                <mxCell id="164" value="Juicer" style="rounded=1;whiteSpace=wrap;html=1;strokeWidth=4;fontSize=24;strokeColor=#FF3333;" parent="1" vertex="1">
                    <mxGeometry x="1209.25" y="267" width="110" height="50" as="geometry"/>
                </mxCell>
                <mxCell id="170" value="" style="shape=curlyBracket;whiteSpace=wrap;html=1;rounded=1;strokeWidth=2;size=0.5;rotation=-180;" parent="1" vertex="1">
                    <mxGeometry x="925.25" y="310.5" width="20.5" height="55.5" as="geometry"/>
                </mxCell>
                <mxCell id="173" value="" style="shape=curlyBracket;whiteSpace=wrap;html=1;rounded=1;strokeWidth=2;size=0.5;rotation=90;" parent="1" vertex="1">
                    <mxGeometry x="1049.44" y="250.18" width="19.63" height="120.5" as="geometry"/>
                </mxCell>
                <mxCell id="210" style="edgeStyle=none;html=1;exitX=1;exitY=0.5;exitDx=0;exitDy=0;fontSize=24;endArrow=block;endFill=1;strokeWidth=2;" parent="1" source="175" edge="1">
                    <mxGeometry relative="1" as="geometry">
                        <mxPoint x="1329.25" y="537" as="targetPoint"/>
                        <Array as="points">
                            <mxPoint x="1030.25" y="657"/>
                            <mxPoint x="1329.25" y="657"/>
                        </Array>
                    </mxGeometry>
                </mxCell>
                <mxCell id="175" value="Fit-Hi-C" style="rounded=1;whiteSpace=wrap;html=1;strokeWidth=4;fontSize=24;rotation=90;strokeColor=#FF3333;" parent="1" vertex="1">
                    <mxGeometry x="974.82" y="545.38" width="110" height="35" as="geometry"/>
                </mxCell>
                <mxCell id="181" value="" style="edgeStyle=none;html=1;fontSize=24;endArrow=block;endFill=1;strokeWidth=2;entryX=0.074;entryY=0.508;entryDx=0;entryDy=0;entryPerimeter=0;" parent="1" target="173" edge="1">
                    <mxGeometry relative="1" as="geometry">
                        <mxPoint x="946.25" y="338" as="sourcePoint"/>
                        <mxPoint x="1050" y="302" as="targetPoint"/>
                        <Array as="points">
                            <mxPoint x="946.25" y="302"/>
                        </Array>
                    </mxGeometry>
                </mxCell>
                <mxCell id="199" value="Conversion" style="text;html=1;resizable=0;autosize=1;align=center;verticalAlign=middle;points=[];fillColor=none;strokeColor=none;rounded=0;" parent="1" vertex="1">
                    <mxGeometry x="959.25" y="277" width="80" height="20" as="geometry"/>
                </mxCell>
                <mxCell id="201" value="Fragments" style="rounded=1;whiteSpace=wrap;html=1;arcSize=50;fontSize=20;rotation=90;" parent="1" vertex="1">
                    <mxGeometry x="940.33" y="368.85" width="117.82" height="25" as="geometry"/>
                </mxCell>
                <mxCell id="202" value="Interaction" style="rounded=1;whiteSpace=wrap;html=1;arcSize=50;fontSize=20;rotation=90;" parent="1" vertex="1">
                    <mxGeometry x="1001.63" y="369.38" width="115" height="25" as="geometry"/>
                </mxCell>
                <mxCell id="204" value="" style="shape=curlyBracket;whiteSpace=wrap;html=1;rounded=1;flipH=1;strokeWidth=2;rotation=90;" parent="1" vertex="1">
                    <mxGeometry x="1020" y="423" width="20" height="61.37" as="geometry"/>
                </mxCell>
                <mxCell id="205" value="" style="edgeStyle=none;html=1;fontSize=24;endArrow=block;endFill=1;strokeWidth=2;entryX=-0.012;entryY=0.51;entryDx=0;entryDy=0;exitX=0.003;exitY=0.503;exitDx=0;exitDy=0;exitPerimeter=0;entryPerimeter=0;" parent="1" source="204" target="175" edge="1">
                    <mxGeometry relative="1" as="geometry">
                        <mxPoint x="1030" y="460" as="sourcePoint"/>
                        <mxPoint x="1029.61" y="489.5" as="targetPoint"/>
                    </mxGeometry>
                </mxCell>
                <mxCell id="163" value="" style="edgeStyle=none;html=1;fontSize=24;endArrow=block;endFill=1;strokeWidth=2;exitX=1;exitY=0.5;exitDx=0;exitDy=0;entryX=0;entryY=0.5;entryDx=0;entryDy=0;" parent="1" source="225" target="168" edge="1">
                    <mxGeometry relative="1" as="geometry">
                        <mxPoint x="1264.25" y="427" as="sourcePoint"/>
                        <mxPoint x="1264.25" y="497" as="targetPoint"/>
                    </mxGeometry>
                </mxCell>
                <mxCell id="167" value="Compartment" style="rounded=1;whiteSpace=wrap;html=1;arcSize=50;fontSize=20;rotation=-270;container=0;fillColor=#d80073;fontColor=#ffffff;strokeColor=#A50040;" parent="1" vertex="1">
                    <mxGeometry x="1137.25" y="560" width="137" height="25" as="geometry"/>
                </mxCell>
                <mxCell id="168" value="TAD" style="rounded=1;whiteSpace=wrap;html=1;arcSize=50;fontSize=20;rotation=-270;container=0;fillColor=#d80073;fontColor=#ffffff;strokeColor=#A50040;" parent="1" vertex="1">
                    <mxGeometry x="1226.25" y="525.38" width="76" height="25" as="geometry"/>
                </mxCell>
                <mxCell id="169" value="Loops" style="rounded=1;whiteSpace=wrap;html=1;arcSize=50;fontSize=20;rotation=-270;container=0;fillColor=#d80073;fontColor=#ffffff;strokeColor=#A50040;" parent="1" vertex="1">
                    <mxGeometry x="1285.25" y="525.38" width="76" height="25" as="geometry"/>
                </mxCell>
                <mxCell id="209" style="edgeStyle=none;html=1;exitX=1;exitY=0.5;exitDx=0;exitDy=0;entryX=1;entryY=0.5;entryDx=0;entryDy=0;fontSize=24;endArrow=block;endFill=1;strokeWidth=2;" parent="1" source="172" target="168" edge="1">
                    <mxGeometry relative="1" as="geometry">
                        <Array as="points">
                            <mxPoint x="1119" y="650"/>
                            <mxPoint x="1199" y="650"/>
                            <mxPoint x="1264" y="650"/>
                        </Array>
                    </mxGeometry>
                </mxCell>
                <mxCell id="172" value="TADLib" style="rounded=1;whiteSpace=wrap;html=1;strokeWidth=4;fontSize=24;rotation=90;strokeColor=#FF3333;" parent="1" vertex="1">
                    <mxGeometry x="1063.75" y="499.5" width="110" height="35" as="geometry"/>
                </mxCell>
                <mxCell id="200" value="" style="edgeStyle=none;html=1;fontSize=24;endArrow=block;endFill=1;strokeWidth=2;exitX=1;exitY=0.5;exitDx=0;exitDy=0;" parent="1" source="198" edge="1">
                    <mxGeometry relative="1" as="geometry">
                        <mxPoint x="1119" y="430" as="sourcePoint"/>
                        <mxPoint x="1119" y="460" as="targetPoint"/>
                    </mxGeometry>
                </mxCell>
                <mxCell id="198" value="Cool file" style="rounded=1;whiteSpace=wrap;html=1;arcSize=50;fontSize=20;rotation=90;" parent="1" vertex="1">
                    <mxGeometry x="1071.25" y="366" width="95" height="25" as="geometry"/>
                </mxCell>
                <mxCell id="184" value="" style="shape=curlyBracket;whiteSpace=wrap;html=1;rounded=1;strokeWidth=2;size=0.5;rotation=-90;" parent="1" vertex="1">
                    <mxGeometry x="1256.75" y="607" width="20" height="122.44" as="geometry"/>
                </mxCell>
                <mxCell id="185" value="" style="edgeStyle=none;html=1;fontSize=24;endArrow=block;endFill=1;strokeWidth=2;entryX=1.012;entryY=0.505;entryDx=0;entryDy=0;entryPerimeter=0;" parent="1" target="212" edge="1">
                    <mxGeometry relative="1" as="geometry">
                        <mxPoint x="1267.36" y="677.9571186440677" as="sourcePoint"/>
                        <mxPoint x="1267.36" y="745.8299999999999" as="targetPoint"/>
                    </mxGeometry>
                </mxCell>
                <mxCell id="186" value="Visualization" style="text;html=1;resizable=0;autosize=1;align=center;verticalAlign=middle;points=[];fillColor=none;strokeColor=none;rounded=0;rotation=0;" parent="1" vertex="1">
                    <mxGeometry x="1093.75" y="682.8289830508476" width="80" height="20" as="geometry"/>
                </mxCell>
                <mxCell id="249" style="edgeStyle=none;html=1;exitX=0.5;exitY=1;exitDx=0;exitDy=0;fontSize=24;endArrow=block;endFill=1;strokeWidth=2;" parent="1" edge="1">
                    <mxGeometry relative="1" as="geometry">
                        <mxPoint x="400" y="709" as="targetPoint"/>
                        <mxPoint x="966.1249999999998" y="709.44" as="sourcePoint"/>
                        <Array as="points">
                            <mxPoint x="966" y="770"/>
                            <mxPoint x="400" y="770"/>
                        </Array>
                    </mxGeometry>
                </mxCell>
                <mxCell id="212" value="Juice box" style="rounded=1;whiteSpace=wrap;html=1;strokeWidth=4;fontSize=24;strokeColor=#FF3333;" parent="1" vertex="1">
                    <mxGeometry x="890" y="646.61" width="132.25" height="62.83" as="geometry"/>
                </mxCell>
                <mxCell id="214" value="Input&amp;nbsp;" style="text;html=1;resizable=0;autosize=1;align=center;verticalAlign=middle;points=[];fillColor=none;strokeColor=none;rounded=0;rotation=0;" parent="1" vertex="1">
                    <mxGeometry x="1024" y="469.3699999999999" width="50" height="20" as="geometry"/>
                </mxCell>
                <mxCell id="215" value="Input&amp;nbsp;" style="text;html=1;resizable=0;autosize=1;align=center;verticalAlign=middle;points=[];fillColor=none;strokeColor=none;rounded=0;" parent="1" vertex="1">
                    <mxGeometry x="1116.37" y="429.9999999999999" width="50" height="20" as="geometry"/>
                </mxCell>
                <mxCell id="217" value="Output" style="text;html=1;resizable=0;autosize=1;align=center;verticalAlign=middle;points=[];fillColor=none;strokeColor=none;rounded=0;" parent="1" vertex="1">
                    <mxGeometry x="1131.25" y="630" width="50" height="20" as="geometry"/>
                </mxCell>
                <mxCell id="220" style="edgeStyle=none;html=1;exitX=1;exitY=0.5;exitDx=0;exitDy=0;fontSize=24;endArrow=block;endFill=1;strokeWidth=2;entryX=0.557;entryY=-0.006;entryDx=0;entryDy=0;entryPerimeter=0;" parent="1" source="218" target="159" edge="1">
                    <mxGeometry relative="1" as="geometry">
                        <mxPoint x="1110" y="230" as="targetPoint"/>
                        <Array as="points">
                            <mxPoint x="1110" y="200"/>
                        </Array>
                    </mxGeometry>
                </mxCell>
                <mxCell id="218" value="Juicer" style="rounded=1;whiteSpace=wrap;html=1;strokeWidth=4;fontSize=24;strokeColor=#FF3333;" parent="1" vertex="1">
                    <mxGeometry x="710" y="170" width="120" height="60" as="geometry"/>
                </mxCell>
                <mxCell id="221" value="Input" style="text;html=1;align=center;verticalAlign=middle;resizable=0;points=[];autosize=1;strokeColor=none;fillColor=none;" parent="1" vertex="1">
                    <mxGeometry x="571" y="202" width="40" height="20" as="geometry"/>
                </mxCell>
                <mxCell id="222" value="Output" style="text;html=1;align=center;verticalAlign=middle;resizable=0;points=[];autosize=1;strokeColor=none;fillColor=none;" parent="1" vertex="1">
                    <mxGeometry x="915" y="202" width="50" height="20" as="geometry"/>
                </mxCell>
                <mxCell id="223" value="" style="shape=curlyBracket;whiteSpace=wrap;html=1;rounded=1;strokeWidth=2;size=0.5;rotation=90;" parent="1" vertex="1">
                    <mxGeometry x="1254.25" y="266.5" width="20" height="120.5" as="geometry"/>
                </mxCell>
                <mxCell id="224" value="Eigenvector" style="rounded=1;whiteSpace=wrap;html=1;arcSize=50;fontSize=20;rotation=90;strokeColor=#FF9933;strokeWidth=2;" parent="1" vertex="1">
                    <mxGeometry x="1140" y="395.25" width="131.5" height="25" as="geometry"/>
                </mxCell>
                <mxCell id="225" value="Arrowhead" style="rounded=1;whiteSpace=wrap;html=1;arcSize=50;fontSize=20;rotation=90;strokeColor=#FF9933;strokeWidth=2;" parent="1" vertex="1">
                    <mxGeometry x="1207.75" y="385.5" width="112" height="25" as="geometry"/>
                </mxCell>
                <mxCell id="226" value="HiCUUPS" style="rounded=1;whiteSpace=wrap;html=1;arcSize=50;fontSize=20;rotation=90;strokeColor=#FF9933;strokeWidth=2;" parent="1" vertex="1">
                    <mxGeometry x="1266.5" y="386.25" width="113.5" height="25" as="geometry"/>
                </mxCell>
                <mxCell id="227" value="" style="edgeStyle=none;html=1;fontSize=24;endArrow=block;endFill=1;strokeWidth=2;entryX=0;entryY=0.5;entryDx=0;entryDy=0;exitX=0.959;exitY=-0.028;exitDx=0;exitDy=0;exitPerimeter=0;" parent="1" source="228" target="167" edge="1">
                    <mxGeometry relative="1" as="geometry">
                        <mxPoint x="1204.8899999999999" y="477" as="sourcePoint"/>
                        <mxPoint x="1205.25" y="517" as="targetPoint"/>
                    </mxGeometry>
                </mxCell>
                <mxCell id="228" value="Output" style="text;html=1;resizable=0;autosize=1;align=center;verticalAlign=middle;points=[];fillColor=none;strokeColor=none;rounded=0;" parent="1" vertex="1">
                    <mxGeometry x="1157.75" y="475.37" width="50" height="20" as="geometry"/>
                </mxCell>
                <mxCell id="229" value="Output" style="text;html=1;resizable=0;autosize=1;align=center;verticalAlign=middle;points=[];fillColor=none;strokeColor=none;rounded=0;" parent="1" vertex="1">
                    <mxGeometry x="1216.5" y="459.5" width="50" height="20" as="geometry"/>
                </mxCell>
                <mxCell id="230" value="" style="edgeStyle=none;html=1;fontSize=24;endArrow=block;endFill=1;strokeWidth=2;entryX=0;entryY=0.5;entryDx=0;entryDy=0;exitX=1.012;exitY=0.503;exitDx=0;exitDy=0;exitPerimeter=0;" parent="1" source="226" target="169" edge="1">
                    <mxGeometry relative="1" as="geometry">
                        <mxPoint x="1323" y="460" as="sourcePoint"/>
                        <mxPoint x="1323.25" y="497" as="targetPoint"/>
                    </mxGeometry>
                </mxCell>
                <mxCell id="231" value="Output" style="text;html=1;resizable=0;autosize=1;align=center;verticalAlign=middle;points=[];fillColor=none;strokeColor=none;rounded=0;" parent="1" vertex="1">
                    <mxGeometry x="1274.25" y="462" width="50" height="20" as="geometry"/>
                </mxCell>
                <mxCell id="239" value="Input" style="text;html=1;align=center;verticalAlign=middle;resizable=0;points=[];autosize=1;strokeColor=none;fillColor=none;" parent="1" vertex="1">
                    <mxGeometry x="804" y="607" width="40" height="20" as="geometry"/>
                </mxCell>
                <mxCell id="290" style="edgeStyle=none;html=1;exitX=0.1;exitY=0.5;exitDx=0;exitDy=0;exitPerimeter=0;entryX=0.483;entryY=0;entryDx=0;entryDy=0;entryPerimeter=0;fontSize=20;strokeWidth=2;endArrow=block;endFill=1;" edge="1" parent="1" source="241" target="268">
                    <mxGeometry relative="1" as="geometry"/>
                </mxCell>
                <mxCell id="241" value="" style="shape=curlyBracket;whiteSpace=wrap;html=1;rounded=1;flipH=1;strokeWidth=2;rotation=90;" parent="1" vertex="1">
                    <mxGeometry x="719.25" y="601" width="21.87" height="181.49" as="geometry"/>
                </mxCell>
                <mxCell id="247" style="edgeStyle=none;html=1;exitX=1;exitY=0.5;exitDx=0;exitDy=0;entryX=0.5;entryY=1;entryDx=0;entryDy=0;fontSize=24;endArrow=block;endFill=1;strokeWidth=2;" parent="1" source="268" target="212" edge="1">
                    <mxGeometry relative="1" as="geometry">
                        <mxPoint x="780" y="744.44" as="sourcePoint"/>
                        <Array as="points">
                            <mxPoint x="956" y="744"/>
                        </Array>
                    </mxGeometry>
                </mxCell>
                <mxCell id="246" value="Output" style="text;html=1;align=center;verticalAlign=middle;resizable=0;points=[];autosize=1;strokeColor=none;fillColor=none;" parent="1" vertex="1">
                    <mxGeometry x="667" y="706.83" width="50" height="20" as="geometry"/>
                </mxCell>
                <mxCell id="248" value="Visualization" style="text;html=1;resizable=0;autosize=1;align=center;verticalAlign=middle;points=[];fillColor=none;strokeColor=none;rounded=0;rotation=0;" parent="1" vertex="1">
                    <mxGeometry x="813.0000000000001" y="722.8289830508476" width="80" height="20" as="geometry"/>
                </mxCell>
                <mxCell id="251" value="Chromosomes' size" style="rounded=1;whiteSpace=wrap;html=1;strokeWidth=2;rotation=90;arcSize=50;fontSize=20;strokeColor=#04BFAD;" parent="1" vertex="1">
                    <mxGeometry x="450" y="435.75" width="197.5" height="30" as="geometry"/>
                </mxCell>
                <mxCell id="253" value="&#10;&#10;&lt;span style=&quot;color: rgb(240, 240, 240); font-family: helvetica; font-size: 20px; font-style: normal; font-weight: 400; letter-spacing: normal; text-align: center; text-indent: 0px; text-transform: none; word-spacing: 0px; background-color: rgb(42, 42, 42); display: inline; float: none;&quot;&gt;Chip_Seq peaks&lt;/span&gt;&#10;&#10;" style="rounded=1;whiteSpace=wrap;html=1;strokeWidth=2;rotation=90;arcSize=50;fontSize=20;dashed=1;dashPattern=1 1;strokeColor=#04BFAD;" parent="1" vertex="1">
                    <mxGeometry x="517" y="452" width="166.75" height="30" as="geometry"/>
                </mxCell>
                <mxCell id="280" style="edgeStyle=none;html=1;exitX=0.1;exitY=0.5;exitDx=0;exitDy=0;exitPerimeter=0;fontSize=20;endArrow=block;endFill=1;strokeWidth=2;" parent="1" source="257" edge="1">
                    <mxGeometry relative="1" as="geometry">
                        <mxPoint x="669" y="630" as="targetPoint"/>
                    </mxGeometry>
                </mxCell>
                <mxCell id="257" value="" style="shape=curlyBracket;whiteSpace=wrap;html=1;rounded=1;flipH=1;strokeWidth=2;rotation=-180;direction=south;" parent="1" vertex="1">
                    <mxGeometry x="549.02" y="555.64" width="239.55" height="49.74" as="geometry"/>
                </mxCell>
                <mxCell id="263" value="Output" style="text;html=1;resizable=0;autosize=1;align=center;verticalAlign=middle;points=[];fillColor=none;strokeColor=none;rounded=0;" parent="1" vertex="1">
                    <mxGeometry x="1049.25" y="636" width="50" height="20" as="geometry"/>
                </mxCell>
                <mxCell id="266" value="Genome index" style="rounded=1;whiteSpace=wrap;html=1;arcSize=50;fontSize=20;strokeColor=#04BFAD;strokeWidth=2;" parent="1" vertex="1">
                    <mxGeometry x="270" y="257" width="200" height="30" as="geometry"/>
                </mxCell>
                <mxCell id="267" value="Hi-C/HiChIP library" style="rounded=1;whiteSpace=wrap;html=1;arcSize=50;fontSize=20;strokeColor=#04BFAD;strokeWidth=2;" parent="1" vertex="1">
                    <mxGeometry x="270" y="200" width="200" height="30" as="geometry"/>
                </mxCell>
                <mxCell id="268" value="Loops" style="rounded=1;whiteSpace=wrap;html=1;arcSize=50;fontSize=20;strokeColor=#A50040;strokeWidth=2;fillColor=#d80073;fontColor=#ffffff;" parent="1" vertex="1">
                    <mxGeometry x="668" y="730" width="129" height="30" as="geometry"/>
                </mxCell>
                <mxCell id="269" value="SCPairs" style="rounded=1;whiteSpace=wrap;html=1;strokeWidth=2;rotation=90;arcSize=50;fontSize=20;" parent="1" vertex="1">
                    <mxGeometry x="731" y="482" width="110" height="30" as="geometry"/>
                </mxCell>
                <mxCell id="270" value="SinglePairs" style="rounded=1;whiteSpace=wrap;html=1;strokeWidth=2;rotation=90;arcSize=50;fontSize=20;" parent="1" vertex="1">
                    <mxGeometry x="851.5" y="490.5" width="129" height="30" as="geometry"/>
                </mxCell>
                <mxCell id="271" value="RSstat" style="rounded=1;whiteSpace=wrap;html=1;strokeWidth=2;rotation=90;arcSize=50;fontSize=20;" parent="1" vertex="1">
                    <mxGeometry x="818" y="482" width="110" height="30" as="geometry"/>
                </mxCell>
                <mxCell id="272" value="Fragments of digestion" style="rounded=1;whiteSpace=wrap;html=1;strokeWidth=2;rotation=90;arcSize=50;fontSize=20;strokeColor=#04BFAD;" parent="1" vertex="1">
                    <mxGeometry x="848.75" y="432" width="230" height="30" as="geometry"/>
                </mxCell>
                <mxCell id="275" value="Input" style="text;html=1;align=center;verticalAlign=middle;resizable=0;points=[];autosize=1;strokeColor=none;fillColor=none;" parent="1" vertex="1">
                    <mxGeometry x="600" y="593" width="40" height="20" as="geometry"/>
                </mxCell>
                <mxCell id="276" value="Visualization" style="text;html=1;resizable=0;autosize=1;align=center;verticalAlign=middle;points=[];fillColor=none;strokeColor=none;rounded=0;rotation=0;" parent="1" vertex="1">
                    <mxGeometry x="451.0000000000001" y="739.9989830508475" width="80" height="20" as="geometry"/>
                </mxCell>
            </root>
        </mxGraphModel>
    </diagram>
</mxfile>